<svg xmlns="http://www.w3.org/2000/svg" viewBox="0 0 30 25">
  <!-- <style>
      path { fill: #222; }
      @media (prefers-color-scheme: dark) {
        path { fill: #ffffff; }
      }
  </style> -->
  <!-- <path fill="currentColor" d="M23 13v-2h-3.07a7.988 7.988 0 0 0-1.62-3.9l2.19-2.17l-1.43-1.43l-2.17 2.19A7.988 7.988 0 0 0 13 4.07V1h-2v3.07c-1.42.18-2.77.74-3.9 1.62L4.93 3.5L3.5 4.93L5.69 7.1A7.988 7.988 0 0 0 4.07 11H1v2h3.07c.18 1.42.74 2.77 1.62 3.9L3.5 19.07l1.43 1.43l2.17-2.19c1.13.88 2.48 1.44 3.9 1.62V23h2v-3.07c1.42-.18 2.77-.74 3.9-1.62l2.17 2.19l1.43-1.43l-2.19-2.17a7.988 7.988 0 0 0 1.62-3.9H23M12 8a4 4 0 0 0-4 4H6a6 6 0 0 1 6-6v2Z"/> -->
  <!-- <svg fill="currentColor" width="31" height="31" ><circle cx="12" cy="11.245" r="1.785" fill="currentColor"/><path fill="currentColor" d="m7.002 14.794l-.395-.101c-2.934-.741-4.617-2.001-4.617-3.452c0-1.452 1.684-2.711 4.617-3.452l.395-.1l.111.391a19.507 19.507 0 0 0 1.136 2.983l.085.178l-.085.178c-.46.963-.841 1.961-1.136 2.985l-.111.39zm-.577-6.095c-2.229.628-3.598 1.586-3.598 2.542c0 .954 1.368 1.913 3.598 2.54c.273-.868.603-1.717.985-2.54a20.356 20.356 0 0 1-.985-2.542zm10.572 6.095l-.11-.392a19.628 19.628 0 0 0-1.137-2.984l-.085-.177l.085-.179c.46-.961.839-1.96 1.137-2.984l.11-.39l.395.1c2.935.741 4.617 2 4.617 3.453c0 1.452-1.683 2.711-4.617 3.452l-.395.101zm-.41-3.553c.4.866.733 1.718.987 2.54c2.23-.627 3.599-1.586 3.599-2.54c0-.956-1.368-1.913-3.599-2.542a20.683 20.683 0 0 1-.987 2.542z"/><path fill="currentColor" d="m6.419 8.695l-.11-.39c-.826-2.908-.576-4.991.687-5.717c1.235-.715 3.222.13 5.303 2.265l.284.292l-.284.291a19.718 19.718 0 0 0-2.02 2.474l-.113.162l-.196.016a19.646 19.646 0 0 0-3.157.509l-.394.098zm1.582-5.529c-.224 0-.422.049-.589.145c-.828.477-.974 2.138-.404 4.38c.891-.197 1.79-.338 2.696-.417a21.058 21.058 0 0 1 1.713-2.123c-1.303-1.267-2.533-1.985-3.416-1.985zm7.997 16.984c-1.188 0-2.714-.896-4.298-2.522l-.283-.291l.283-.29a19.827 19.827 0 0 0 2.021-2.477l.112-.16l.194-.019a19.473 19.473 0 0 0 3.158-.507l.395-.1l.111.391c.822 2.906.573 4.992-.688 5.718a1.978 1.978 0 0 1-1.005.257zm-3.415-2.82c1.302 1.267 2.533 1.986 3.415 1.986c.225 0 .423-.05.589-.145c.829-.478.976-2.142.404-4.384c-.89.198-1.79.34-2.698.419a20.526 20.526 0 0 1-1.71 2.124z"/><path fill="currentColor" d="m17.58 8.695l-.395-.099a19.477 19.477 0 0 0-3.158-.509l-.194-.017l-.112-.162A19.551 19.551 0 0 0 11.7 5.434l-.283-.291l.283-.29c2.08-2.134 4.066-2.979 5.303-2.265c1.262.727 1.513 2.81.688 5.717l-.111.39zm-3.287-1.421c.954.085 1.858.228 2.698.417c.571-2.242.425-3.903-.404-4.381c-.824-.477-2.375.253-4.004 1.841c.616.67 1.188 1.378 1.71 2.123zM8.001 20.15a1.983 1.983 0 0 1-1.005-.257c-1.263-.726-1.513-2.811-.688-5.718l.108-.391l.395.1c.964.243 2.026.414 3.158.507l.194.019l.113.16c.604.878 1.28 1.707 2.02 2.477l.284.29l-.284.291c-1.583 1.627-3.109 2.522-4.295 2.522zm-.993-5.362c-.57 2.242-.424 3.906.404 4.384c.825.47 2.371-.255 4.005-1.842a21.17 21.17 0 0 1-1.713-2.123a20.692 20.692 0 0 1-2.696-.419z"/><path fill="currentColor" d="M12 15.313c-.687 0-1.392-.029-2.1-.088l-.196-.017l-.113-.162a25.697 25.697 0 0 1-1.126-1.769a26.028 26.028 0 0 1-.971-1.859l-.084-.177l.084-.179c.299-.632.622-1.252.971-1.858c.347-.596.726-1.192 1.126-1.77l.113-.16l.196-.018a25.148 25.148 0 0 1 4.198 0l.194.019l.113.16a25.136 25.136 0 0 1 2.1 3.628l.083.179l-.083.177a24.742 24.742 0 0 1-2.1 3.628l-.113.162l-.194.017c-.706.057-1.412.087-2.098.087zm-1.834-.904c1.235.093 2.433.093 3.667 0a24.469 24.469 0 0 0 1.832-3.168a23.916 23.916 0 0 0-1.832-3.168a23.877 23.877 0 0 0-3.667 0a23.743 23.743 0 0 0-1.832 3.168a24.82 24.82 0 0 0 1.832 3.168z"/></svg> -->
  <!-- <svg width="30" height="30" viewBox="0 0 128 128"><path fill="#CA2C31" d="m3.77 71.73l16.34-16.1l27.82-4.93l-2.75 14.56L7.57 76.82l-2.43-1.05z"/><path fill="#A02422" d="M22.94 59.76L5.2 75.88l13.05 6.36l19.81-10.11v-4.77l4.05-10.92zm41.98 28.39l-8.57 3.72l-8.09 17.15s7.12 15.77 7.44 15.77c.32 0 4.37.32 4.37.32l14.4-16.1l3.64-27.5l-13.19 6.64z"/><path fill="#CA2C31" d="M56.5 100.84s4.77-.97 8.17-2.59c3.4-1.62 7.6-4.04 7.6-4.04l-1.54 13.43l-15.05 17.13s-.59-.73-3.09-6.17c-1.99-4.34-2.68-5.89-2.68-5.89l6.59-11.87z"/><path fill="#F7D74D" d="M31.58 80.66s-5.74-.48-12.03 7.47c-5.74 7.26-8.43 19.08-9.47 22.12s-3.53 3.66-2.7 5.05s4.42 1.31 8.85.76s8.23-1.94 8.23-1.94s-.19.48-.83 1.52c-.23.37-1.03.9-.97 1.45c.14 1.31 11.36 1.34 20.32-7.88c9.68-9.95 4.98-18.11 4.98-18.11L31.58 80.66z"/><path fill="#FBF0B4" d="M33.31 85.29s-6.19.33-11.31 8.28s-7.5 17.16-7.01 17.78c.48.62 10.02-2.83 12.31-2.14c1.57.48.76 2.07 1.18 2.49c.35.35 4.49.94 11.19-6.32c6.71-7.26 5.12-17.46 5.12-17.46l-11.48-2.63z"/><path fill="#858585" d="M36.35 74.44s-3.11 2.77-4.22 4.36c-1.11 1.59-1.11 1.73-1.04 2.21c.07.48 1.22 5.75 6.01 10.37c5.88 5.67 11.13 6.43 11.89 6.43c.76 0 5.81-5.67 5.81-5.67l-18.45-17.7z"/><path fill="#437687" d="M50.1 91.24s5.04 3.31 13.49.47c11.55-3.88 20.02-12.56 30.51-23.52c10.12-10.58 18.61-23.71 18.61-23.71l-5.95-19.93L50.1 91.24z"/><path fill="#3F545F" d="m67.99 80.33l1.39-4.32l3.48.49s2.65 1.25 4.6 2.16c1.95.91 4.46 1.6 4.46 1.6l-4.95 4.18s-2.7-1.02-4.67-1.88c-2.22-.97-4.31-2.23-4.31-2.23z"/><path fill="#8DAFBF" d="M84.32 16.14s-9.62 5.58-23.41 18.63c-12.43 11.76-21.64 22.4-23.87 31.45c-1.86 7.58-.87 12.18 3.36 17.15c4.47 5.26 9.71 7.87 9.71 7.87s3.94.06 20.38-12.59C91 62.86 107.43 36.42 107.43 36.42L84.32 16.14z"/><path fill="#D83F22" d="M104.18 41.84s-8.37-3.57-14.34-11.9c-5.93-8.27-5.46-13.86-5.46-13.86s4.96-3.89 16.11-8.34c7.5-2.99 17.71-4.52 21.07-2.03s-2.3 14.98-2.3 14.98l-10.31 19.96l-4.77 1.19z"/><path fill="#6896A5" d="M68.17 80.4s-7.23-3.69-11.83-8.94c-8.7-9.91-10.5-20.79-10.5-20.79l4.37-5.13S51.3 57.1 60.63 67.09c6.08 6.51 12.43 9.49 12.43 9.49s-1.27 1.07-2.63 2.11c-.87.67-2.26 1.71-2.26 1.71z"/><path fill="#A02422" d="M112.71 44.48s4.34-5.23 8.45-17.02c5.74-16.44.74-21.42.74-21.42s-1.69 7.82-7.56 18.69c-4.71 8.71-10.41 17-10.41 17s3.14 1.41 4.84 1.9c2.14.62 3.94.85 3.94.85z"/><path fill="#B3E1EE" d="M39.81 69.66c1.3 1.24 3.27-.06 4.56-3.1c1.3-3.04 1.28-4.74.28-5.46c-1.24-.9-3.32 1.07-4.23 2.82c-1 1.94-1.59 4.8-.61 5.74zm45.14-49.53s-7.61 5.47-15.73 12.91c-7.45 6.83-12.39 12.17-13.07 13.41c-.72 1.33-.73 3.21-.17 4.17s1.8 1.46 2.93.62c1.13-.85 9.18-9.75 16.45-16.11c6.65-5.82 11.78-9.51 11.78-9.51s2.08-3.68 1.74-4.52c-.34-.85-3.93-.97-3.93-.97z"/><path fill="#ED6A65" d="M84.95 20.13s5.62-4.31 11.74-7.34c5.69-2.82 11.35-5.17 12.37-3.13c.97 1.94-5.37 4.58-10.95 8.14c-5.58 3.56-10.95 7.81-10.95 7.81s-.82-1.5-1.35-2.89a23.7 23.7 0 0 1-.86-2.59z"/><path fill="#E1E1E1" d="M89.59 39.25c-5.57-5.13-13.32-3.75-17.14.81c-3.92 4.7-3.63 11.88 1 16.2c4.21 3.92 12.04 4.81 16.76-.69c4.2-4.88 3.94-12.13-.62-16.32z"/><path fill="#3F545F" d="M75.33 41.87c-3.31 3.25-3.13 9.69.81 12.63c3.44 2.57 8.32 2.44 11.38-.69c3.06-3.13 3.06-8.82.19-11.76c-3.3-3.37-8.59-3.9-12.38-.18z"/><path fill="#A02524" d="M50 76.89s6.19-6.28 6.87-5.6c.68.68.59 4.49-2.37 8.73c-2.97 4.24-9.5 11.79-14.67 16.88c-5.1 5.01-12.29 10.74-12.97 10.64c-.53-.08-2.68-1.15-3.54-2.19c-.84-1.03 1.67-5.9 2.68-7.51c1.02-1.61 24-20.95 24-20.95z"/><path fill="#CA2C31" d="M21.23 101.85c-.08 1.44 2.12 3.54 2.12 3.54L56.87 71.3s-1.57-1.77-6.19 1.1c-4.66 2.9-8.74 6.38-14.76 12.21c-8.39 8.14-14.61 15.8-14.69 17.24z"/><path fill="#FFF" d="M19.06 36.95c-1.11 1.11-1.16 2.89.08 3.91c1.1.91 2.89.32 3.56-.5s.59-2.6-.3-3.48c-.89-.89-2.66-.6-3.34.07z"/><path fill="#FFF" d="M41.02 35.65c-.84.93-.57 2.31.21 2.82s1.95.46 2.52-.24c.51-.63.57-1.89-.21-2.67c-.68-.67-1.98-.51-2.52.09z" opacity=".5"/><path fill="#FFF" d="M55.55 11.89s1.22-3.48 1.94-3.52c.73-.04 1.78 3.48 1.78 3.48s3.61.04 3.85.57c.31.68-2.31 2.96-2.31 2.96s.85 3.4.45 3.81c-.45.45-3.56-1.34-3.56-1.34s-3.2 2.23-3.89 1.62c-.6-.53.65-4.13.65-4.13s-3-2.19-2.84-2.8c.23-.86 3.93-.65 3.93-.65zm41.46 83.44c1.21.67 2.73.29 3.29-1c.51-1.15-.43-2.52-1.28-2.89c-.85-.37-2.34.12-2.88 1.09c-.53.96.14 2.4.87 2.8zm17.18-29.49c-.69-1.07-2.18-1.42-3.15-.56c-.94.84-.71 2.16-.18 2.83c.53.67 1.95.92 2.81.37s.94-2 .52-2.64z"/></svg> -->
  <!-- <svg width="40.32" height="30" viewBox="0 0 256 203"><path fill="#090B08" d="M256 39.788c0-20.403-14.696-37.007-35.105-37.007c-12.06 0-20.814 4.191-26.34 11.08c-1.033.786-1.938 1.69-2.838 2.607C173.904 6.078 152.134.07 128.115 0C103.177.068 81.12 5.888 63.324 16.159C57.661 7.848 47.783 2.781 34.398 2.781C13.989 2.781 0 19.385 0 39.788C0 55.435 7.682 67.87 19.476 73.492c-1.815 7.387-2.865 15.139-2.865 23.29c0 59.075 48.976 105.969 111.498 105.969h.059c60.436 0 111.498-48.816 111.498-105.916c0-8.333-1.227-16.312-3.322-23.939C247.966 66.997 256 54.859 256 39.788"/><path fill="#FFF" d="M226.806 97.41c0 49.378-45.422 91.504-98.875 91.504c-53.454 0-98.883-40.032-98.883-89.411c0-49.385 45.429-89.411 98.883-89.411c53.453 0 98.875 37.933 98.875 87.318"/><path fill="#090B08" d="M107.819 78.44c-2.266 17.232-13.732 29.934-25.594 28.368c-11.863-1.565-19.643-16.803-17.371-34.035c2.272-17.232 13.731-29.933 25.6-28.368c11.863 1.559 19.643 16.796 17.365 34.035"/><path fill="#FFF" d="M98.38 62.067c0 5.138-4.167 9.306-9.306 9.306c-5.139 0-9.306-4.168-9.306-9.306c0-5.139 4.167-9.307 9.306-9.307c5.139 0 9.306 4.168 9.306 9.307"/><path fill="#090B08" d="M147.911 78.44c2.272 17.232 13.731 29.934 25.594 28.368c11.869-1.565 19.643-16.803 17.371-34.035c-2.272-17.232-13.732-29.933-25.595-28.368c-11.868 1.559-19.642 16.796-17.37 34.035"/><path fill="#FFF" d="M157.356 62.067a9.304 9.304 0 0 0 9.306 9.306c5.139 0 9.3-4.168 9.3-9.306c0-5.139-4.161-9.307-9.3-9.307a9.304 9.304 0 0 0-9.306 9.307"/><path fill="#090B08" d="M134.853 138.443v-10.208c0-.554-.053-1.078-.167-1.556c7.579-1.457 13.079-5.528 13.079-10.379c0-4.756-1.057-8.805-8.401-10.344c-2.035-.422-8.415-.654-10.7-.654c-2.186 0-8.474.212-10.429.601c-7.491 1.487-8.679 5.582-8.679 10.397c0 6.007 8.385 10.871 18.788 10.972c-.04.316-.096.621-.096.963v10.683c-15.285-.189-29.511-10.613-29.511-3.649c0 7.034 15.138 13.699 30.581 13.699c15.442 0 27.959-5.7 27.959-12.735c0-6.069-9.814.337-22.424 2.21"/><path fill="#E7EBE0" d="M136.946 114.206c0 1.962-4.861 3.56-8.282 3.56c-3.421 0-8.289-1.598-8.289-3.56c0-1.565 2.476-2.893 4.907-3.375c.634-.126 2.675-.192 3.382-.192c.74 0 2.807.08 3.467.212c2.378.495 4.815 1.809 4.815 3.355"/><path fill="#E1DEDC" d="M127.931 10.092c-53.454 0-98.883 40.026-98.883 89.411c0 49.379 45.429 89.411 98.883 89.411c-2.134 0-4.254-.086-6.354-.211c2.787-.172 5.541-.456 8.269-.846c-46.756-6.578-84.047-43.619-84.047-88.354c0-44.86 37.496-81.98 84.437-88.4a113.055 113.055 0 0 0-8.514-.812c2.061-.119 4.128-.199 6.209-.199"/><path fill="#F1EFEE" d="M127.931 10.092c2.86 0 5.693.133 8.507.344c-2.081.165-4.155.383-6.202.667c46.743 6.262 84.008 41.578 84.008 86.307c0 44.847-37.476 83.691-84.398 90.447c2.094.291 4.207.522 6.334.694c-2.728.224-5.475.363-8.249.363c53.453 0 98.875-42.126 98.875-91.504c0-49.385-45.422-87.318-98.875-87.318"/><path fill="#D3D0CD" d="M129.846 187.857c-2.728.39-5.482.674-8.269.846c2.1.125 4.22.211 6.354.211c2.774 0 5.521-.139 8.249-.363c-2.127-.172-4.24-.403-6.334-.694m-1.915-177.765c-2.081 0-4.148.08-6.209.199c2.867.165 5.707.436 8.514.812c2.047-.284 4.121-.502 6.202-.667a113.645 113.645 0 0 0-8.507-.344"/><path fill="#FFF" d="M229.008 54.533c4.09-3.612 6.722-8.837 6.722-14.725c0-10.885-8.824-19.716-19.716-19.716c-4.74 0-9.031 1.742-12.431 4.529c10.633 8.313 19.267 18.423 25.425 29.912m-202.959.827c5.817-11.823 14.191-22.108 24.688-30.52c-3.439-2.919-7.835-4.748-12.699-4.748c-10.885 0-19.716 8.831-19.716 19.716c0 6.356 3.059 11.947 7.727 15.552"/></svg> -->
  <!-- <svg width="32" height="32" viewBox="0 0 128 128"><path fill="#e0e0e0" d="M122.51 46.95c-.28-.75-.57-1.49-.87-2.22c-.11-.26-.21-.52-.32-.78c-9.83-23.26-27.6-31.01-35.89-33.43c-.7-.08-1.11-.19-1.11-.19v.05A69.517 69.517 0 0 0 65 7.61h-.29c-6.68 0-13.42.97-19.76 2.87c-24.48 7.24-34.31 26.84-37.6 35.77c-.04.38-.11.61-.11.61h.01C5.06 52.74 3.71 58.9 3.36 64.99c-.93 15.8 1.84 31.72 14.58 42.71c7.05 6.08 15.82 10.21 24.86 12.44c3.44.86 12.32 2.83 21.63 2.83c9.31 0 19.05-1.97 22.49-2.83c9.04-2.23 17.81-6.36 24.87-12.44c12.73-10.99 15.5-26.9 14.58-42.71c-.36-6.06-1.7-12.18-3.86-18.04z"/><path fill="#2f2f2f" d="M54.44 67.92c1.04-5.2-1.59-11.12-6.27-13.73c-6.69-3.71-14.78-2.48-20.78 1.9c-3.47 2.53-7.67 6.37-9.88 10.09c-3.87 6.54-4.64 16.42.5 22.76c3.19 3.93 8.71 5.37 13.5 4.49c5.65-1.05 9.32-5.23 12.77-9.51c3.26-4.08 7.14-8.01 9.19-12.89c.43-1.02.77-2.06.97-3.11zm-12.91 3.61c-3.53 0-6.39-2.79-6.39-6.23c0-3.45 2.86-6.25 6.39-6.25s6.4 2.8 6.4 6.25c0 3.44-2.86 6.23-6.4 6.23zm70.42 18.33c5.43-6.71 4.62-17.15.52-24.06c-2.32-3.93-6.77-7.99-10.43-10.66c-6.33-4.64-14.89-5.94-21.95-2.01c-4.97 2.76-7.73 9.02-6.63 14.51c.21 1.11.58 2.21 1.01 3.28c2.18 5.16 6.27 9.31 9.73 13.63c3.62 4.52 7.52 8.93 13.48 10.04c5.06.94 10.89-.59 14.27-4.73zM87.32 71.53c-3.53 0-6.39-2.79-6.39-6.23c0-3.45 2.87-6.25 6.39-6.25c3.53 0 6.39 2.8 6.39 6.25c0 3.44-2.86 6.23-6.39 6.23zM75.21 96.29c-.14.19-3.28 4.51-10.67 4.51c-7.34 0-10.49-4.29-10.65-4.51a2.306 2.306 0 0 0-3.2-.6a2.316 2.316 0 0 0-.62 3.21c.18.27 4.54 6.52 14.46 6.52c9.93 0 14.3-6.26 14.48-6.52c.71-1.05.45-2.47-.6-3.19c-1.03-.72-2.47-.45-3.2.58zm-10.66-4.02c5.54 0 10.04-3.62 10.04-8.09s-4.5-8.09-10.04-8.09s-10.03 3.62-10.03 8.09s4.49 8.09 10.03 8.09zm56.77-48.32c-.06-.14-.11-.28-.17-.42v-1.02c.19-1.12 1.05-1.97 1.7-2.87l.4-.54c.92-1.37 1.64-2.86 2.27-4.38c2.94-7 3.02-14.82-.68-20.55c-2.62-4.05-12.97-14.56-29.3-5.67c-4.28 2.33-8.24 2.24-10.1 2.02c8.28 2.42 26.05 10.18 35.88 33.43zM44.95 10.48c-.47.14-.95.28-1.42.43c-.92.2-5.71 1.02-11.02-1.87C16.18.16 5.82 10.66 3.2 14.71c-1.13 1.76-1.97 3.88-2.41 5.9c-.81 3.83-.49 8.09.69 11.82c.63 2 1.56 3.87 2.54 5.73c.63 1.23 1.29 2.45 2.1 3.59c1.32 1.85 1.34 3.61 1.24 4.5c3.28-8.93 13.11-28.53 37.59-35.77z"/></svg> -->
  <svg width="32" height="32" viewBox="0 0 36 36"><path fill="#C1694F" d="M4.048 29.644c-.811-.558-1.541-4.073-.936-4.404c.738-.402.686.835 2.255 2.362c1.569 1.528 6.47.913 7.708 1.326c1.363.455-6.385 2.533-9.027.716z"/><path fill="#D99E82" d="M5.367 27.603C4 22 4.655 18.919 5.433 16.861C6.8 13.24 16.699 5.169 23.8 2.637C25.678 1.967 31.62 1 35 1c.589 2.332-1.174 6.717-1.62 7.518c-1.009 1.81-3.564 4.273-8.646 9.482c-.252.258-5.119-.46-5.376-.191c-.283.296 4.044 1.579 3.755 1.889c-.738.79-1.495 1.624-2.268 2.507c-.172.196-8.311-.923-8.484-.722c-.232.27 7.501 1.862 7.266 2.14c-.645.765-1.299 1.564-1.959 2.397c-1.725 2.178-12.301 1.583-12.301 1.583z"/><path fill="#C1694F" d="M19.15 12.787c1.588.966 5.331 1.943 8.316 2.422c1.898-1.937 3.299-3.378 4.302-4.529c-2.259-.49-5.742-1.3-7.487-2.087l-.816-.403l-4.872 4.17l.557.427z"/><path fill="#662113" d="M35.088 1.514A3.85 3.85 0 0 0 35 1c-.378 0-.792.014-1.225.036c-3.438.178-8.307 1.006-9.975 1.601c-.345.123-.702.27-1.059.418c-.478.198-.964.416-1.459.654c.356 1.481 1.126 3.144 1.807 4.013a72.185 72.185 0 0 0-4.836 4.115C12.598 17.085 8.232 22.709 5.248 27.079c.04.174.076.344.12.524c0 0 .219.012.589.026c1.482-2.288 5.703-8.239 13.194-14.841a91.61 91.61 0 0 1 5.13-4.195c1.745.787 5.228 1.597 7.487 2.087c.322-.369.606-.712.849-1.028c.316-.412.569-.785.763-1.134c.415-.746 1.969-4.594 1.708-7.004z"/><path fill="#C1694F" d="M35 1c-.369 0-.751-.003-1.138-.008c-3.915 1.874-7.509 4.194-10.772 6.73c-.68-.87-1.451-2.532-1.807-4.013a42.574 42.574 0 0 0-4.484 2.539c.309 1.911.852 4.377 1.455 5.589C6.827 22.441.638 34.605.553 34.776a.5.5 0 0 0 .895.448c.119-.238 12.144-23.883 33.659-33.72A7.693 7.693 0 0 0 35 1z"/></svg>
</svg>
